<?xml version="1.0" encoding="UTF-8" standalone="no"?>
<!DOCTYPE svg PUBLIC "-//W3C//DTD SVG 20010904//EN" "http://www.w3.org/TR/2001/REC-SVG-20010904/DTD/svg10.dtd">
<svg version="1.0" xmlns="http://www.w3.org/2000/svg" width="300.000000pt" height="303.000000pt" viewBox="0 0 300.000000 303.000000" preserveAspectRatio="xMidYMid meet">
<metadata>
Created by potrace 1.10, written by Peter Selinger 2001-2011
</metadata>
<g transform="translate(0.000000,303.000000) scale(0.100000,-0.100000)" stroke="none" fill="#ffffff">
<path d="M1380 2783 c-7 -122 -5 -143 15 -143 19 0 21 5 19 65 -2 36 -5 69 -9 75 -7 12 -25 13 -25 3z"/>
<path d="M1225 2688 c-2 -7 -3 -38 -2 -68 2 -43 6 -55 20 -58 23 -5 33 25 29 87 -3 43 -7 51 -23 51 -11 0 -21 -6 -24 -12z"/>
<path d="M1520 2683 c0 -10 4 -24 9 -32 6 -9 5 -24 0 -39 -7 -18 -6 -28 2 -32 8 -6 7 -9 -2 -13 -8 -3 -2 -6 13 -6 20 -1 25 3 23 17 -2 9 -4 41 -4 70 -1 45 -4 52 -21 52 -12 0 -20 -7 -20 -17z"/>
<path d="M1374 2554 c3 -9 6 -50 6 -92 0 -54 3 -72 10 -62 6 9 10 10 10 3 0 -7 -6 -16 -14 -20 -7 -4 -17 -19 -21 -32 -5 -16 -4 -21 4 -17 6 4 11 12 11 18 0 6 6 16 14 22 10 8 15 38 18 104 3 91 3 92 -21 92 -17 0 -22 -4 -17 -16z"/>
<path d="M1229 2488 c-1 -7 -2 -53 -3 -102 l-1 -90 -200 -117 c-110 -64 -203 -115 -206 -113 -4 2 -9 -3 -13 -11 -3 -8 -15 -15 -26 -15 -11 0 -20 -5 -20 -11 0 -6 9 -9 20 -6 31 8 13 -11 -33 -34 -38 -20 -41 -20 -26 -3 29 35 31 56 7 78 -12 12 -23 19 -24 16 -3 -9 -84 41 -84 52 0 6 -8 0 -19 -13 l-18 -23 70 -36 c39 -20 72 -41 74 -46 3 -10 -65 -49 -79 -46 -5 1 -8 -2 -8 -8 0 -15 -27 -12 -44 6 -11 11 -16 12 -16 3 0 -9 -4 -8 -12 2 -7 8 -32 27 -56 42 -38 25 -44 26 -58 13 -13 -14 -9 -18 33 -41 26 -15 65 -36 86 -48 l39 -22 -4 -67 c-2 -44 0 -64 6 -58 18 18 21 11 17 -37 -3 -37 -6 -43 -12 -28 -4 11 -8 -100 -8 -247 l-1 -266 -85 -47 c-47 -25 -85 -50 -85 -54 0 -4 12 -8 27 -7 18 1 27 6 25 14 -1 8 2 11 8 7 20 -12 90 42 119 93 8 13 10 7 10 -28 0 -25 -3 -39 -6 -32 -12 29 -18 7 -15 -54 3 -51 1 -65 -9 -59 -7 5 -10 4 -5 -3 6 -10 -30 -28 -47 -24 -5 1 -5 -3 -1 -9 5 -9 2 -10 -10 -6 -10 4 -15 3 -11 -3 7 -12 -32 -33 -47 -24 -7 5 -8 3 -3 -6 6 -10 4 -12 -7 -7 -12 4 -14 1 -11 -14 7 -26 13 -25 79 15 32 19 61 33 66 30 4 -3 8 4 8 14 0 28 24 46 39 29 6 -8 8 -17 4 -20 -3 -4 -1 -7 6 -7 7 0 9 -5 5 -12 -4 -7 -3 -8 4 -4 6 4 22 0 35 -9 13 -8 27 -12 30 -8 4 3 7 -2 7 -13 0 -15 2 -16 9 -5 7 11 13 11 32 -3 22 -15 22 -16 4 -17 -12 0 -1 -8 25 -19 25 -10 44 -24 42 -30 -1 -6 1 -9 6 -6 5 3 33 -10 64 -28 30 -19 71 -41 89 -50 19 -9 77 -42 129 -74 l95 -57 3 -98 c2 -84 5 -97 20 -97 15 0 17 11 17 84 0 68 -3 82 -14 78 -10 -4 -13 -1 -9 10 4 9 1 21 -5 27 -25 25 4 8 48 -28 57 -47 85 -58 78 -30 -3 11 -10 19 -15 19 -5 0 -6 4 -3 10 4 6 -1 7 -11 3 -13 -5 -15 -3 -10 8 4 8 0 5 -10 -6 -16 -20 -16 -20 -11 2 4 16 1 20 -11 16 -9 -4 -13 -2 -9 4 4 6 -1 10 -11 9 -9 0 -16 5 -14 12 1 8 -2 11 -9 6 -7 -4 -20 3 -31 17 -11 13 -17 18 -13 11 6 -11 3 -12 -14 -3 -11 7 -21 17 -21 23 0 6 -3 8 -7 5 -3 -4 -12 1 -20 11 -8 9 -12 11 -8 5 4 -9 1 -11 -9 -7 -9 3 -13 10 -10 15 3 5 -3 6 -12 2 -12 -4 -15 -3 -10 6 4 6 4 11 -1 10 -20 -3 -34 2 -28 11 4 6 -1 7 -11 3 -13 -5 -15 -3 -9 7 5 9 4 11 -3 6 -14 -8 -55 18 -45 28 4 4 -1 4 -11 0 -15 -6 -17 -4 -11 6 5 9 4 11 -3 6 -14 -8 -55 18 -45 28 4 4 -1 4 -11 0 -13 -5 -17 -4 -12 4 5 8 1 10 -10 5 -13 -5 -15 -3 -9 7 5 9 4 11 -3 6 -6 -4 -20 2 -32 14 -11 11 -23 20 -27 20 -21 0 -43 13 -37 21 3 5 2 8 -3 7 -15 -5 -73 24 -67 33 3 5 2 8 -3 7 -5 -2 -25 6 -45 16 -33 18 -35 22 -30 55 2 20 5 215 6 434 l1 397 40 24 c22 13 43 22 47 20 5 -3 8 -1 8 5 0 11 107 74 126 74 7 0 11 4 9 7 -6 9 129 82 139 75 3 -3 4 -2 1 2 -7 9 127 83 137 77 4 -3 8 -1 8 4 0 10 157 105 174 105 6 0 11 13 12 28 l1 27 -29 -18 c-16 -10 -29 -21 -28 -25 2 -8 -71 -64 -84 -65 -5 0 -2 8 7 18 10 10 17 34 18 53 1 30 2 31 8 10 4 -14 13 -27 21 -29 12 -4 13 -2 3 9 -8 10 -11 43 -9 97 4 75 2 82 -15 82 -10 0 -20 -6 -20 -12z m-560 -543 c-15 -8 -30 -22 -33 -32 -6 -15 -8 -15 -16 -3 -15 23 -13 26 23 38 46 14 56 13 26 -3z m-21 -472 c-2 -138 -3 -148 -5 -55 -2 69 -7 110 -13 107 -6 -4 -9 15 -8 47 l1 53 8 -45 7 -45 -1 53 c-1 28 1 52 6 52 4 0 6 -75 5 -167z"/>
<path d="M1522 2433 c1 -32 7 -67 14 -78 6 -11 15 -35 19 -53 l7 -34 -31 16 c-17 9 -30 22 -28 28 3 15 -79 61 -94 53 -6 -5 8 -20 35 -40 25 -18 43 -34 41 -37 -3 -3 1 -5 8 -5 6 0 115 -59 242 -132 126 -72 235 -129 243 -126 7 2 11 1 8 -4 -6 -9 109 -83 149 -97 17 -6 17 -4 -4 14 -13 12 -20 22 -15 22 6 0 16 -6 23 -12 11 -11 13 -10 9 2 -2 8 -23 24 -46 34 -23 11 -42 24 -42 30 0 6 32 28 70 49 39 21 70 45 70 53 0 18 -29 18 -54 -1 -10 -8 -23 -12 -27 -9 -5 3 -9 1 -9 -4 0 -8 -49 -37 -61 -34 -3 0 -10 -8 -17 -19 -14 -22 0 -26 18 -4 7 8 17 15 23 15 5 0 3 -8 -6 -18 -10 -10 -17 -26 -17 -35 0 -9 -3 -17 -7 -17 -16 1 -40 25 -36 36 2 7 -60 49 -139 94 -79 45 -150 86 -158 91 -8 5 -44 26 -80 48 l-65 38 -3 97 c-2 87 -4 96 -22 96 -17 0 -19 -7 -18 -57z"/>
<path d="M2335 2223 c-17 -9 -38 -22 -47 -30 -9 -8 -21 -12 -27 -9 -5 4 -13 1 -17 -5 -4 -8 -3 -9 4 -5 11 6 17 -12 13 -36 0 -5 4 -8 9 -8 6 0 10 4 10 9 0 12 79 63 89 56 5 -2 11 4 14 14 7 27 -13 32 -48 14z"/>
<path d="M412 2221 c-11 -6 -10 -11 3 -25 9 -9 22 -16 29 -16 7 0 24 -10 38 -23 25 -23 46 -24 60 -3 12 18 9 26 -9 26 -10 0 -36 12 -58 25 -45 28 -45 28 -63 16z"/>
<path d="M2495 2150 c3 -5 2 -10 -3 -10 -4 0 -17 -9 -29 -19 -11 -10 -29 -21 -39 -23 -26 -5 -25 -34 1 -30 11 2 25 4 32 4 7 1 10 5 7 9 -2 4 4 10 13 14 10 3 27 12 37 20 16 12 17 17 6 30 -14 17 -35 21 -25 5z"/>
<path d="M1374 2141 c4 -5 -17 -9 -47 -9 -30 1 -59 -2 -65 -6 -7 -4 -16 -4 -22 -1 -5 3 -10 2 -10 -3 0 -5 -19 -15 -42 -22 -112 -33 -220 -110 -309 -220 -39 -48 -67 -99 -99 -181 -19 -48 -19 -51 -3 -45 16 5 16 4 -1 -9 -16 -12 -17 -17 -6 -30 7 -8 10 -18 6 -22 -3 -3 -6 -2 -6 4 0 5 -7 10 -15 10 -8 0 -13 -3 -11 -6 2 -3 6 -67 8 -143 1 -75 6 -134 11 -131 6 4 11 -21 10 -54 -1 -7 2 -13 6 -13 3 0 17 -27 31 -60 14 -33 31 -62 38 -65 17 -6 15 10 -4 29 -14 15 -14 17 3 22 41 13 65 25 60 30 -3 3 -15 0 -28 -6 -19 -11 -25 -10 -36 6 -7 10 -12 23 -10 29 2 5 -3 16 -10 24 -8 8 -12 22 -10 33 3 11 1 15 -5 12 -7 -5 -9 2 -4 20 5 20 3 26 -5 21 -8 -6 -10 4 -7 33 2 22 0 38 -4 36 -9 -6 -10 105 -2 158 4 21 10 36 14 33 4 -2 5 7 2 22 -3 17 -1 24 6 19 6 -4 8 2 4 16 -3 13 -1 19 5 15 7 -5 9 1 5 15 -4 16 -2 19 8 13 9 -5 11 -4 6 3 -8 13 10 52 24 52 6 0 31 -13 57 -29 27 -17 52 -26 58 -22 5 5 26 11 45 13 33 5 34 5 12 -10 -22 -14 -22 -18 -22 -238 0 -219 0 -223 23 -240 19 -14 19 -16 2 -9 -11 3 -24 7 -30 8 -5 1 -13 6 -17 12 -9 12 -81 -22 -73 -34 3 -5 -2 -17 -11 -25 -21 -22 -9 -20 36 5 25 14 36 27 33 36 -6 16 -8 16 65 -20 19 -10 39 -14 44 -10 6 3 8 2 5 -3 -6 -10 181 -121 196 -116 4 1 7 -3 7 -8 0 -6 5 -10 11 -10 6 0 16 -6 24 -12 7 -7 22 -21 34 -30 18 -15 21 -29 21 -88 l0 -70 -47 1 c-37 0 -43 2 -28 9 14 7 8 8 -19 3 -28 -4 -37 -3 -32 6 6 9 0 10 -20 5 -18 -5 -25 -3 -20 4 4 6 -2 8 -16 4 -14 -3 -19 -1 -14 6 5 8 1 10 -10 5 -11 -4 -15 -2 -11 4 4 6 1 11 -6 10 -32 -1 -48 4 -42 13 4 6 3 10 -2 9 -21 -4 -34 2 -27 13 4 7 3 8 -4 4 -15 -9 -73 34 -65 48 3 6 2 8 -2 3 -10 -9 -97 72 -89 84 2 4 -1 11 -7 15 -8 5 -9 3 -4 -7 6 -10 5 -11 -3 -4 -6 6 -18 24 -27 40 -12 22 -16 24 -12 8 3 -14 -1 -24 -10 -28 -12 -4 7 -28 68 -89 91 -90 154 -128 279 -167 101 -32 260 -32 369 -1 41 11 79 18 85 15 5 -4 6 -1 1 7 -6 10 -4 12 9 7 10 -4 15 -3 11 3 -3 6 1 10 9 10 9 0 21 9 28 19 6 10 17 17 24 14 7 -2 19 5 26 16 7 12 18 21 24 21 13 0 113 104 139 145 11 17 25 34 32 38 7 4 13 16 13 27 0 27 11 51 20 45 5 -3 6 5 2 17 -3 13 -1 19 5 15 7 -5 9 1 5 15 -3 13 -1 19 5 15 7 -5 9 0 6 13 -3 11 -1 20 4 20 6 0 8 12 5 26 -4 20 -2 25 8 19 9 -6 11 -4 5 6 -10 14 -8 171 1 203 5 13 3 16 -6 11 -10 -6 -12 -1 -8 19 3 14 1 26 -5 26 -5 0 -7 9 -4 20 3 11 1 20 -5 20 -6 0 -8 7 -4 15 3 8 1 15 -5 15 -6 0 -9 6 -7 12 3 7 1 17 -4 23 -5 5 -23 33 -39 60 -49 84 -52 88 -104 140 -52 52 -56 55 -140 104 -27 16 -55 34 -60 39 -6 5 -16 7 -23 4 -6 -2 -12 1 -12 8 0 6 -4 9 -9 5 -5 -3 -12 -1 -15 4 -3 5 -16 7 -28 3 -13 -3 -19 -1 -15 5 5 7 0 9 -13 6 -11 -3 -20 -1 -20 5 0 7 -17 9 -50 5 -34 -4 -50 -2 -50 6 0 6 -12 11 -26 11 -14 0 -23 -4 -20 -9z m76 -30 c0 -6 5 -11 11 -11 5 0 7 6 3 13 -4 6 1 5 12 -4 10 -9 35 -19 54 -23 27 -4 31 -3 20 5 -12 8 -10 10 10 5 14 -3 30 -6 37 -6 7 0 10 -6 8 -13 -3 -7 16 -22 50 -37 30 -14 55 -28 55 -32 0 -5 6 -8 14 -8 17 0 186 -168 186 -186 0 -7 -11 -16 -25 -20 -20 -5 -24 -11 -20 -28 4 -14 3 -17 -3 -8 -7 11 -16 10 -45 -4 -34 -16 -36 -16 -74 7 -21 12 -40 25 -43 28 -3 4 -31 19 -62 35 -32 16 -58 33 -58 38 0 5 -4 7 -9 3 -5 -3 -13 0 -16 6 -4 5 -14 8 -22 5 -8 -3 -12 -2 -10 2 3 4 -1 13 -9 20 -8 7 -14 10 -14 7 0 -3 -13 2 -30 12 -16 9 -30 21 -30 26 0 4 -4 5 -10 2 -5 -3 -11 0 -11 7 -4 29 -6 55 -8 98 -3 42 -4 43 -11 15 l-8 -30 -2 30 c-2 28 -3 27 -10 -10 -4 -22 -6 -54 -3 -71 5 -30 4 -31 -182 -138 l-188 -107 -36 17 c-20 9 -44 23 -53 32 -10 8 -18 11 -18 6 0 -5 -7 0 -15 10 -17 22 -20 14 -6 -12 8 -14 4 -17 -20 -17 -16 0 -29 1 -29 2 0 14 38 59 47 56 6 -2 18 5 25 16 8 12 18 19 21 16 4 -3 5 -2 2 2 -8 10 66 83 77 77 5 -3 7 0 6 6 -5 21 153 108 239 131 45 12 80 25 78 29 -2 4 25 8 60 9 40 1 65 -2 65 -8z m243 -66 c20 -10 37 -22 37 -27 0 -5 -18 3 -40 17 -22 14 -44 25 -49 25 -5 0 -13 4 -16 10 -7 11 8 5 68 -25z m-289 -107 c-3 -5 1 -8 9 -8 7 0 19 -10 26 -22 7 -13 82 -64 169 -114 l157 -91 0 -218 0 -218 -30 -18 c-58 -35 -140 -82 -168 -96 -15 -8 -24 -19 -21 -25 4 -7 2 -8 -5 -4 -7 4 -33 -6 -61 -24 -27 -17 -54 -29 -60 -25 -6 4 -10 3 -9 -2 3 -20 -2 -27 -11 -13 -8 13 -10 12 -10 -4 0 -12 5 -16 15 -12 8 3 15 1 15 -5 0 -5 13 -3 29 5 16 9 32 12 36 8 5 -4 5 -1 1 6 -4 6 -2 12 4 12 6 0 8 5 4 12 -5 7 -3 8 6 3 8 -5 18 -1 27 10 7 11 13 16 13 12 0 -4 27 7 60 24 37 19 57 35 53 42 -3 7 -3 9 2 5 10 -10 106 42 99 54 -3 4 2 11 10 14 9 3 16 18 17 33 0 15 3 20 6 11 3 -8 12 -23 21 -32 10 -13 11 -18 3 -18 -7 0 -9 -5 -5 -11 3 -6 14 -9 24 -6 13 3 17 0 13 -10 -3 -7 -2 -13 3 -12 13 3 46 -11 69 -30 19 -15 19 -15 5 3 -14 18 -13 19 2 13 12 -4 23 1 34 16 l16 22 -7 -25 c-7 -26 -47 -70 -63 -70 -6 0 -13 -7 -16 -16 -3 -8 -11 -12 -17 -8 -7 4 -9 3 -6 -3 7 -11 -76 -96 -86 -88 -4 3 -5 2 -2 -2 8 -10 -88 -74 -103 -68 -8 3 -10 0 -6 -7 5 -8 2 -9 -10 -5 -9 4 -15 3 -12 -2 3 -5 -16 -18 -43 -29 -37 -15 -52 -17 -61 -9 -10 9 -11 9 -6 0 6 -11 -57 -28 -99 -26 -11 0 -23 -4 -26 -9 -11 -17 -28 1 -22 23 4 16 8 17 14 7 5 -8 9 16 9 60 0 70 -1 73 -27 83 -17 7 -23 13 -15 16 9 3 3 13 -17 27 -17 13 -27 27 -23 31 4 5 2 5 -5 1 -14 -8 -76 28 -66 38 4 4 -1 4 -11 0 -15 -6 -17 -4 -11 6 5 9 4 11 -3 6 -15 -9 -55 18 -44 29 4 4 -3 2 -16 -4 -12 -7 -21 -8 -20 -4 3 9 -39 54 -48 52 -3 -1 -23 8 -45 20 l-39 22 0 217 1 217 79 44 c44 24 77 48 73 54 -3 6 -1 7 5 3 15 -9 55 18 44 29 -4 5 -1 5 6 1 15 -9 145 61 137 74 -3 5 2 15 10 23 8 9 15 31 16 49 l1 33 8 -35 c5 -19 6 -38 4 -42z m464 -33 c19 -19 31 -35 29 -35 -8 0 -117 107 -117 114 0 8 44 -31 88 -79z m62 -75 c6 -11 7 -20 3 -20 -4 0 2 -7 13 -15 18 -14 18 -14 -4 -15 -13 0 -33 -5 -45 -11 -22 -10 -22 -10 1 10 25 21 28 41 10 59 -9 9 -9 12 0 12 6 0 16 -9 22 -20z m-199 -77 c16 -10 29 -21 29 -25 0 -4 11 -3 25 2 14 5 25 7 25 4 0 -2 10 0 23 6 15 8 12 4 -8 -13 -23 -19 -31 -35 -33 -63 -4 -52 -12 -57 -12 -8 0 41 -25 75 -75 102 -11 6 -16 12 -12 12 5 0 22 -8 38 -17z m234 -35 c10 -29 22 -58 26 -64 5 -6 5 -15 1 -19 -4 -5 -2 -5 5 -1 6 3 14 2 18 -4 3 -5 1 -10 -4 -10 -12 0 -15 -52 -5 -63 8 -7 6 -129 -3 -176 -4 -27 -3 -32 8 -27 8 4 6 1 -3 -6 -9 -8 -20 -26 -23 -41 -4 -15 -12 -24 -18 -20 -6 3 -7 1 -3 -6 9 -15 -3 -53 -15 -46 -5 3 -6 -1 -3 -9 12 -32 -25 -27 -82 11 l-57 38 2 210 c1 115 6 214 11 219 15 15 104 66 116 66 5 0 18 -24 29 -52z"/>
<path d="M1318 1617 c-4 -142 -2 -290 3 -299 4 -6 12 -7 19 -3 7 4 10 31 9 74 -1 38 2 74 6 81 6 10 4 12 -8 7 -11 -4 -17 -1 -17 8 0 19 14 19 30 0 8 -10 31 -15 70 -15 60 0 72 4 64 25 -4 9 -24 11 -75 7 l-69 -5 0 67 0 66 96 0 c80 0 95 2 92 15 -2 12 -25 16 -110 19 l-108 4 -2 -51z"/>
<path d="M270 2120 c0 -11 7 -20 16 -20 9 0 12 -5 8 -12 -4 -7 -3 -8 4 -4 13 8 55 -11 48 -22 -3 -5 5 -9 17 -9 19 -2 36 11 37 27 0 4 -16 12 -35 19 -19 7 -33 17 -30 22 3 5 0 6 -8 3 -8 -3 -18 -1 -22 5 -11 18 -35 12 -35 -9z"/>
<path d="M2316 2044 c-3 -8 -10 -12 -16 -9 -5 3 -10 2 -10 -3 0 -7 -42 -32 -60 -35 -3 0 -11 -7 -18 -14 -7 -7 -19 -13 -27 -13 -19 0 -26 -27 -8 -34 19 -8 94 34 86 47 -3 6 -1 7 5 3 6 -4 25 0 42 9 16 8 30 12 30 8 0 -4 5 -2 12 5 9 9 7 16 -9 31 -18 17 -22 18 -27 5z"/>
<path d="M270 1965 c0 -8 1 -18 1 -22 1 -5 28 -23 59 -40 56 -32 58 -32 63 -12 4 15 0 23 -14 26 -10 3 -19 9 -19 14 0 5 -7 9 -15 9 -8 0 -24 9 -35 20 -24 24 -40 26 -40 5z"/>
<path d="M2485 1966 c-11 -6 -35 -20 -54 -30 -31 -16 -32 -19 -18 -34 14 -14 19 -14 34 -1 29 23 63 40 71 35 4 -2 9 6 10 20 2 26 -11 29 -43 10z"/>
<path d="M2151 1898 c-4 -13 -5 -35 -1 -49 5 -17 4 -32 -3 -39 -9 -10 -8 -12 5 -7 11 4 19 0 23 -13 8 -26 -3 -43 -24 -36 -12 5 -11 2 3 -9 11 -8 15 -15 10 -15 -7 0 -11 -84 -12 -245 -1 -185 2 -245 11 -245 8 0 6 -4 -3 -11 -13 -9 -13 -10 0 -6 19 5 18 -8 19 287 l1 245 73 37 c107 55 115 62 95 81 -14 15 -17 14 -33 -3 -10 -11 -22 -17 -26 -14 -5 3 -9 0 -9 -6 0 -6 -3 -9 -7 -7 -10 6 -34 -19 -26 -26 3 -3 -4 -3 -16 0 -12 3 -21 1 -21 -6 0 -6 -7 -11 -15 -11 -12 0 -15 13 -15 60 0 61 -14 79 -29 38z"/>
<path d="M453 1854 c-6 -17 7 -29 91 -75 34 -18 55 -26 48 -16 -8 9 -11 20 -8 26 4 5 -3 12 -14 16 -11 3 -20 11 -20 16 0 5 -6 9 -14 9 -8 0 -21 6 -28 13 -23 23 -48 28 -55 11z"/>
<path d="M2134 1435 c0 -165 2 -234 3 -153 2 81 2 216 0 300 -1 84 -3 18 -3 -147z"/>
<path d="M989 1633 c-3 -104 2 -347 6 -352 3 -2 5 89 5 202 0 114 -2 207 -5 207 -3 0 -6 -26 -6 -57z"/>
<path d="M2207 1194 c15 -15 27 -31 25 -36 -1 -5 1 -7 6 -4 5 3 24 -4 43 -16 41 -26 80 -32 72 -12 -2 7 -13 16 -24 19 -11 4 -17 11 -13 16 3 5 2 8 -3 7 -14 -5 -73 24 -67 33 3 5 -1 6 -9 3 -8 -3 -18 -1 -22 5 -3 6 -13 11 -21 11 -10 0 -6 -9 13 -26z"/>
<path d="M2165 1180 c-11 -5 -14 -9 -7 -9 9 -1 10 -6 2 -20 -15 -28 -12 -67 5 -81 8 -7 15 -21 15 -31 0 -11 5 -19 11 -19 5 0 8 -4 5 -8 -3 -5 1 -9 8 -9 26 0 87 -34 80 -45 -4 -7 -2 -8 5 -4 6 4 17 3 24 -2 15 -11 47 -12 47 0 0 4 -5 8 -11 8 -5 0 -7 5 -4 10 4 6 3 9 -2 8 -16 -4 -53 14 -48 23 3 5 -2 6 -11 2 -13 -5 -15 -3 -9 7 5 9 4 11 -3 6 -14 -8 -55 18 -45 28 4 4 -1 4 -11 0 -14 -5 -17 -4 -12 5 5 7 2 10 -6 9 -10 -2 -13 14 -13 65 0 37 0 67 0 66 0 0 -9 -4 -20 -9z"/>
<path d="M362 1085 c11 -11 -29 -38 -44 -29 -7 5 -8 3 -3 -6 6 -10 4 -12 -9 -7 -9 4 -15 3 -12 -2 3 -5 -1 -11 -9 -15 -18 -6 -20 -36 -3 -36 6 0 26 12 45 26 18 14 42 26 52 27 15 1 17 5 10 19 -5 9 -15 20 -22 24 -6 4 -9 4 -5 -1z"/>
<path d="M2416 1083 c-13 -13 -5 -23 34 -43 22 -11 40 -24 40 -29 0 -11 34 -10 42 2 10 17 -2 36 -19 30 -11 -4 -14 -2 -9 6 4 6 4 10 -1 9 -14 -4 -54 13 -49 21 6 8 -30 12 -38 4z"/>
<path d="M2114 1043 c10 -10 -33 -35 -46 -27 -7 5 -8 3 -3 -6 6 -10 4 -12 -9 -7 -10 4 -15 3 -11 -3 8 -12 -32 -33 -48 -24 -6 4 -9 4 -5 -1 10 -11 -50 -47 -64 -39 -6 4 -8 3 -5 -3 7 -11 -50 -40 -66 -35 -5 1 -5 -3 -1 -9 5 -9 2 -10 -12 -5 -10 4 -15 4 -11 0 10 -10 -31 -36 -45 -28 -7 5 -8 3 -3 -6 6 -10 4 -12 -9 -7 -10 4 -15 3 -11 -3 7 -12 -32 -33 -47 -24 -7 4 -8 3 -4 -4 7 -11 -6 -17 -27 -13 -5 1 -5 -4 -1 -10 5 -9 2 -10 -10 -6 -11 5 -15 3 -10 -5 5 -8 2 -9 -10 -5 -10 4 -15 3 -11 -3 5 -9 -1 -12 -21 -9 -3 0 -11 -7 -18 -17 -7 -9 -18 -14 -24 -10 -8 5 -10 2 -6 -8 4 -11 0 -14 -15 -11 -14 3 -19 0 -15 -7 5 -8 1 -9 -11 -4 -16 6 -16 4 -4 -10 13 -16 12 -16 -10 -5 -15 8 -21 9 -17 2 7 -10 -6 -16 -27 -12 -5 1 -5 -4 -1 -10 5 -9 2 -10 -10 -6 -9 4 -14 3 -11 -2 3 -5 -4 -12 -15 -16 -12 -4 -20 -16 -21 -28 0 -12 -3 -16 -6 -9 -2 6 -10 12 -16 12 -8 0 -7 -4 1 -12 14 -14 16 -32 3 -23 -6 3 -11 -35 -13 -93 -3 -94 -2 -98 17 -94 18 3 20 11 20 105 l0 102 36 17 c19 9 50 30 68 47 37 35 49 35 30 0 -6 -13 -15 -63 -18 -111 -6 -86 -6 -88 16 -88 21 0 22 3 18 85 -2 47 -6 89 -9 93 -9 14 25 54 41 48 8 -3 12 -2 9 2 -2 4 14 19 37 33 67 41 205 123 235 139 101 55 131 74 129 84 -1 6 11 11 26 10 19 0 26 4 22 13 -2 8 0 11 5 8 5 -3 22 1 38 9 16 8 33 12 37 8 5 -4 5 -1 1 6 -4 7 -2 12 5 12 18 0 -6 23 -27 26 -9 1 -13 0 -10 -3z"/>
<path d="M2060 931 c5 -11 26 -25 45 -31 19 -6 35 -15 35 -20 0 -5 9 -12 20 -15 11 -4 18 -10 15 -15 -3 -4 4 -6 15 -3 27 7 35 22 21 36 -9 9 -11 7 -6 -8 4 -14 2 -12 -8 5 -9 14 -19 24 -24 23 -17 -5 -43 9 -37 20 4 7 4 9 -1 5 -4 -4 -20 -1 -36 7 -40 21 -52 19 -39 -4z"/>
<path d="M727 928 c-10 -5 -25 -7 -33 -4 -9 3 -12 1 -9 -4 6 -9 -8 -14 -28 -11 -5 1 -5 -4 -1 -10 5 -9 2 -10 -10 -6 -11 5 -15 3 -10 -5 5 -8 1 -9 -12 -4 -10 4 -15 4 -12 0 4 -4 3 -15 -2 -25 -11 -19 4 -37 15 -19 4 6 11 7 17 4 6 -4 8 -2 5 3 -7 11 50 40 66 35 5 -1 6 2 2 8 -3 5 -2 10 2 10 5 0 17 6 28 13 22 17 7 29 -18 15z"/>
<path d="M2423 918 c-20 -26 -26 -41 -15 -34 7 4 12 2 12 -4 0 -6 4 -8 10 -5 5 3 30 -8 55 -25 25 -17 45 -28 44 -23 -4 22 2 34 14 27 7 -4 9 -3 4 2 -5 5 -13 10 -18 10 -5 1 -14 2 -20 3 -5 0 -7 5 -4 11 4 6 -1 7 -11 3 -12 -4 -15 -3 -10 5 5 8 1 10 -10 5 -12 -4 -15 -3 -10 6 4 6 4 11 -1 10 -20 -3 -34 2 -28 11 9 14 -1 12 -12 -2z"/>
<path d="M356 898 c3 -4 -15 -18 -40 -29 -26 -13 -42 -27 -39 -35 6 -15 34 -27 30 -13 -1 6 19 22 46 37 51 28 62 53 23 50 -14 -1 -22 -6 -20 -10z"/>
<path d="M2270 810 c6 -11 15 -20 21 -20 6 0 7 -6 3 -12 -4 -7 -4 -10 0 -6 12 10 66 -12 66 -28 0 -11 4 -12 18 -3 10 7 19 18 19 25 0 7 -4 11 -9 8 -11 -7 -68 28 -62 38 3 4 -3 5 -12 1 -10 -4 -15 -2 -11 3 3 5 -6 11 -19 12 -22 2 -23 -1 -14 -18z"/>
<path d="M505 804 c-11 -8 -25 -12 -33 -9 -8 3 -10 0 -6 -7 5 -8 2 -9 -10 -5 -11 5 -15 3 -10 -5 5 -7 2 -9 -8 -5 -11 4 -15 0 -14 -11 4 -25 21 -25 61 3 21 14 41 25 45 25 4 0 10 7 14 15 7 19 -13 19 -39 -1z"/>
<path d="M1239 378 c4 -18 4 -50 0 -70 -6 -35 -5 -38 17 -38 15 0 24 6 24 15 0 8 -3 15 -7 15 -10 0 -9 52 0 67 11 17 -3 43 -23 43 -14 0 -16 -6 -11 -32z"/>
<path d="M1540 365 c5 -20 6 -48 4 -61 -3 -15 0 -24 8 -24 9 0 8 -3 -2 -10 -12 -8 -11 -10 7 -10 20 0 21 4 19 68 -1 60 -4 67 -23 70 -19 3 -21 0 -13 -33z"/>
<path d="M1391 271 c1 -32 -2 -64 -5 -70 -5 -7 1 -11 13 -11 18 0 21 7 22 48 1 26 3 57 4 70 2 16 -3 22 -16 22 -17 0 -19 -8 -18 -59z"/>
</g>
</svg>